<svg xmlns="http://www.w3.org/2000/svg" viewBox="0 0 64 64" width="64" height="64" role="img" aria-label="J&T">
  <defs>
    <linearGradient id="bg" x1="0" y1="0" x2="1" y2="1">
      <stop offset="0" stop-color="#ff2337"/>
      <stop offset="1" stop-color="#c90010"/>
    </linearGradient>
    <filter id="s" x="-20%" y="-20%" width="140%" height="140%">
      <feDropShadow dx="0" dy="4" stdDeviation="4" flood-color="#000" flood-opacity="0.30"/>
    </filter>
  </defs>
  <rect x="4" y="4" width="56" height="56" rx="14" fill="url(#bg)"/>
  <path d="M15 20h13l-4.4 18.4c-1.6 6.5-5.4 9.7-12.1 9.7H8.7l2.3-9h2.8c2.1 0 3.2-.9 3.7-3.1L21.4 20H15z" fill="#fff" filter="url(#s)"/>
  <path d="M27.5 31.8c0-6.9 5.5-12.5 12.5-12.5h12.3l-2.1 8.6h-7.9c-3.1 0-5.3 2-5.3 4.8 0 2.7 2.1 4.7 5.2 4.7h5.8l-2.2 8.8h-6.4c-6.8 0-11.9-6.1-11.9-14.4z" fill="#fff" filter="url(#s)"/>
  <path d="M25.9 47.5l5.6-8.3-4.9-6.4h8.5l1.1 1.5 1.1-1.5h8.4l-5 6.5 5.7 8.2h-8.8l-1.5-2.3-1.5 2.3h-8.7z" fill="#111" opacity=".96"/>
</svg>
