<svg xmlns="http://www.w3.org/2000/svg" xmlns:xlink="http://www.w3.org/1999/xlink" width="600" zoomAndPan="magnify" viewBox="0 0 450 156.749997" height="209" preserveAspectRatio="xMidYMid meet" version="1.0"><defs><clipPath id="9eb6dc191c"><path d="M 1.414062 3.539062 L 146 3.539062 L 146 148 L 1.414062 148 Z M 1.414062 3.539062 " clip-rule="nonzero"/></clipPath><clipPath id="aeb3d09a7b"><path d="M 143 3.539062 L 286 3.539062 L 286 148 L 143 148 Z M 143 3.539062 " clip-rule="nonzero"/></clipPath><clipPath id="d74fc95461"><path d="M 258 3.539062 L 448.453125 3.539062 L 448.453125 148 L 258 148 Z M 258 3.539062 " clip-rule="nonzero"/></clipPath></defs><g clip-path="url(#9eb6dc191c)"><path fill="#ffffff" d="M 103.992188 3.632812 L 145.507812 3.632812 C 134.648438 51.457031 123.734375 99.273438 112.757812 147.078125 C 75.640625 147.078125 38.519531 147.152344 1.394531 147.121094 C 6.710938 137.636719 11.429688 127.839844 16.570312 118.253906 C 37.015625 118.355469 57.429688 118.253906 77.90625 118.289062 C 86.628906 80.078125 95.226562 41.828125 103.992188 3.632812 Z M 103.992188 3.632812 " fill-opacity="1" fill-rule="nonzero"/></g><g clip-path="url(#aeb3d09a7b)"><path fill="#ffffff" d="M 166.691406 3.632812 L 259.226562 3.632812 C 251.933594 16.785156 244.742188 30 237.410156 43.140625 C 237.410156 39.640625 238.128906 36.136719 237.640625 32.652344 C 236.921875 28.65625 233.429688 25.863281 229.820312 24.484375 C 223.289062 21.992188 215.480469 22.035156 209.453125 25.917969 C 201.222656 30.9375 197.582031 42.277344 201.761719 51.046875 C 205.632812 58.730469 211.402344 65.261719 217.335938 71.417969 C 224.515625 78.683594 232.160156 85.414062 240.277344 91.605469 C 241.539062 90.070312 242.476562 88.355469 243.085938 86.46875 C 244.996094 80.570312 246.480469 74.570312 247.539062 68.464844 C 257.101562 71.183594 266.652344 73.941406 276.214844 76.675781 C 274.414062 91.011719 268.746094 104.753906 260.78125 116.820312 C 269.039062 126.902344 277.304688 136.984375 285.578125 147.066406 C 273.039062 147.066406 260.488281 147.066406 247.960938 147.066406 C 245.253906 144.238281 242.652344 141.328125 239.933594 138.460938 C 227.316406 144.332031 213.410156 147.207031 199.539062 147.652344 C 183.464844 147.890625 166.71875 144.226562 153.65625 134.46875 C 146.289062 127.234375 141.9375 116.546875 143.25 106.195312 C 144.265625 97.871094 148.34375 90.246094 153.390625 83.671875 C 160.105469 75.246094 167.980469 68.101562 177.011719 62.238281 C 167.34375 51.433594 160.769531 36.886719 162.554688 22.171875 C 163.816406 15.957031 165.300781 9.789062 166.699219 3.617188 M 180.417969 99.105469 C 178.144531 102.691406 177.515625 107.441406 179.449219 111.34375 C 180.316406 113.027344 181.386719 114.574219 182.65625 115.984375 C 183.925781 117.390625 185.355469 118.609375 186.945312 119.644531 C 188.535156 120.675781 190.230469 121.488281 192.03125 122.078125 C 193.832031 122.671875 195.679688 123.019531 197.574219 123.128906 C 206.542969 123.6875 215.292969 120.453125 222.988281 116.09375 C 214.125 105.613281 205.386719 95.039062 196.460938 84.644531 C 190.667969 88.882812 184.21875 92.796875 180.410156 99.121094 Z M 180.417969 99.105469 " fill-opacity="1" fill-rule="nonzero"/></g><g clip-path="url(#d74fc95461)"><path fill="#ffffff" d="M 280.421875 3.632812 L 448.582031 3.632812 C 445.332031 6.757812 442.1875 9.984375 438.972656 13.136719 C 425.007812 13.136719 411.050781 13.136719 397.09375 13.136719 C 395.34375 14.886719 393.566406 16.613281 391.816406 18.371094 C 405.789062 18.371094 419.777344 18.371094 433.734375 18.371094 C 431.003906 20.835938 428.714844 23.960938 425.703125 26.019531 C 411.695312 26.164062 397.675781 26.070312 383.660156 26.0625 C 381.839844 27.789062 380.050781 29.546875 378.289062 31.339844 C 392.414062 31.339844 406.542969 31.339844 420.65625 31.339844 C 416.835938 35.183594 412.980469 38.980469 409.128906 42.808594 C 393.710938 42.808594 378.304688 42.84375 362.863281 42.808594 C 354.117188 77.542969 345.542969 112.347656 336.832031 147.066406 C 323.3125 147.023438 309.792969 147.152344 296.273438 147 C 304.4375 112.167969 313.578125 77.570312 322.167969 42.839844 C 301.105469 42.839844 280.042969 42.839844 258.980469 42.839844 C 266.148438 29.777344 273.1875 16.652344 280.421875 3.632812 Z M 280.421875 3.632812 " fill-opacity="1" fill-rule="nonzero"/></g></svg>
